<svg xmlns="http://www.w3.org/2000/svg" xmlns:xlink="http://www.w3.org/1999/xlink" width="1024" height="1024" viewBox="0 0 1024 1024" fill="none"><path d="M224.667 65.2734C227.238 65.2661 229.809 65.2565 232.38 65.2449C239.383 65.2199 246.386 65.2271 253.388 65.24C260.965 65.2483 268.543 65.2264 276.12 65.2086C290.94 65.1787 305.761 65.1772 320.582 65.1863C332.636 65.1934 344.691 65.1908 356.746 65.1815C358.465 65.1802 360.185 65.1789 361.956 65.1776C365.449 65.1749 368.942 65.1722 372.436 65.1695C405.16 65.1457 437.884 65.1551 470.609 65.1751C500.497 65.1924 530.386 65.1699 560.276 65.1282C591.017 65.0856 621.759 65.0689 652.5 65.0805C669.739 65.0866 686.977 65.0828 704.216 65.0522C718.892 65.0265 733.57 65.0255 748.246 65.0558C755.723 65.0706 763.199 65.0745 770.676 65.0477C828.156 64.8563 828.156 64.8563 851.778 72.9187C853.884 73.6133 855.99 74.3079 858.161 75.0236C885.893 84.5646 910.449 103.953 928.433 126.935C948.082 154.641 958.529 185.35 958.758 219.409C958.747 221.762 958.737 224.115 958.726 226.467C958.733 229.033 958.742 231.599 958.754 234.165C958.779 241.144 958.772 248.124 958.759 255.105C958.751 262.66 958.773 270.217 958.791 277.772C958.82 292.547 958.822 307.322 958.813 322.097C958.806 334.114 958.808 346.132 958.817 358.15C958.819 359.864 958.82 361.579 958.822 363.346C958.824 366.829 958.827 370.314 958.829 373.797C958.853 406.423 958.845 439.048 958.824 471.674C958.806 501.471 958.829 531.269 958.871 561.068C958.913 591.72 958.93 622.371 958.918 653.024C958.913 670.21 958.916 687.398 958.947 704.584C958.972 719.215 958.974 733.846 958.944 748.478C958.928 755.932 958.925 763.384 958.951 770.839C959.143 828.139 959.143 828.139 951.082 851.794C950.386 853.901 949.693 856.008 948.977 858.179C938.886 887.509 918.414 912.04 893.59 930.205C892.107 931.295 890.625 932.388 889.099 933.512C861.517 952.426 828.771 958.913 795.816 958.758C793.25 958.767 790.685 958.776 788.119 958.788C781.14 958.812 774.161 958.805 767.182 958.791C759.628 958.784 752.073 958.805 744.519 958.824C729.746 958.854 714.974 958.856 700.202 958.845C688.186 958.838 676.171 958.842 664.155 958.851C661.583 958.852 661.583 958.852 658.96 958.854C655.475 958.858 651.993 958.859 648.51 958.863C615.89 958.887 583.269 958.877 550.649 958.858C520.856 958.84 491.063 958.863 461.269 958.905C430.622 958.946 399.974 958.964 369.327 958.952C352.144 958.946 334.96 958.95 317.777 958.979C303.148 959.006 288.519 959.007 273.89 958.976C266.437 958.962 258.985 958.957 251.532 958.985C207.819 959.131 171.167 956.739 133.358 931.804C125.466 926.045 118.411 919.52 111.356 912.78C110.285 911.839 109.214 910.897 108.11 909.928C88.1869 891.742 75.3255 864.084 69.3079 838.198C63.9537 813.553 65.0699 788.07 65.1488 762.984C65.1648 755.477 65.1402 747.971 65.1211 740.462C65.0902 725.801 65.0967 711.142 65.1171 696.481C65.1328 684.556 65.1348 672.632 65.1273 660.707C65.1261 659.005 65.1251 657.3 65.124 655.544C65.1218 652.082 65.1195 648.621 65.1172 645.159C65.0974 612.776 65.1202 580.392 65.1577 548.01C65.1889 520.278 65.1834 492.547 65.1512 464.816C65.1139 432.535 65.0993 400.254 65.1207 367.974C65.123 364.527 65.1251 361.079 65.1273 357.63C65.1284 355.935 65.1294 354.24 65.1305 352.492C65.1366 340.593 65.1265 328.694 65.1099 316.794C65.0904 302.278 65.096 287.762 65.1329 273.245C65.151 265.852 65.1585 258.459 65.1354 251.066C64.9416 183.867 64.9416 183.867 79.5616 155.032C80.1565 153.815 80.7513 152.597 81.3642 151.343C86.7712 140.609 93.3348 131.041 100.903 121.707C102.062 120.124 102.062 120.124 103.244 118.508C116.087 101.826 136.108 88.7205 154.91 79.8885C156.572 79.1046 158.234 78.3207 159.946 77.513C181.215 68.0745 201.541 65.1653 224.667 65.2734Z"   fill="#16ACA0" ></path><path d="M224.667 65.2734C227.238 65.2661 229.809 65.2565 232.38 65.2449C239.383 65.2199 246.386 65.2271 253.388 65.24C260.965 65.2483 268.543 65.2264 276.12 65.2086C290.94 65.1787 305.761 65.1772 320.582 65.1863C332.636 65.1934 344.691 65.1908 356.746 65.1815C358.465 65.1802 360.185 65.1789 361.956 65.1776C365.449 65.1749 368.942 65.1722 372.436 65.1695C405.16 65.1457 437.884 65.1551 470.609 65.1751C500.497 65.1924 530.386 65.1699 560.276 65.1282C591.017 65.0856 621.759 65.0689 652.5 65.0805C669.739 65.0866 686.977 65.0828 704.216 65.0522C718.892 65.0265 733.57 65.0255 748.246 65.0558C755.723 65.0706 763.199 65.0745 770.676 65.0477C828.156 64.8563 828.156 64.8563 851.778 72.9187C853.884 73.6133 855.99 74.3079 858.161 75.0236C885.893 84.5646 910.449 103.953 928.433 126.935C948.082 154.641 958.529 185.35 958.758 219.409C958.747 221.762 958.737 224.115 958.726 226.467C958.733 229.033 958.742 231.599 958.754 234.165C958.779 241.144 958.772 248.124 958.759 255.105C958.751 262.66 958.773 270.217 958.791 277.772C958.82 292.547 958.822 307.322 958.813 322.097C958.806 334.114 958.808 346.132 958.817 358.15C958.819 359.864 958.82 361.579 958.822 363.346C958.824 366.829 958.827 370.314 958.829 373.797C958.853 406.423 958.845 439.048 958.824 471.674C958.806 501.471 958.829 531.269 958.871 561.068C958.913 591.72 958.93 622.371 958.918 653.024C958.913 670.21 958.916 687.398 958.947 704.584C958.972 719.215 958.974 733.846 958.944 748.478C958.928 755.932 958.925 763.384 958.951 770.839C959.143 828.139 959.143 828.139 951.082 851.794C950.386 853.901 949.693 856.008 948.977 858.179C938.886 887.509 918.414 912.04 893.59 930.205C892.107 931.295 890.625 932.388 889.099 933.512C861.517 952.426 828.771 958.913 795.816 958.758C793.25 958.767 790.685 958.776 788.119 958.788C781.14 958.812 774.161 958.805 767.182 958.791C759.628 958.784 752.073 958.805 744.519 958.824C729.746 958.854 714.974 958.856 700.202 958.845C688.186 958.838 676.171 958.842 664.155 958.851C661.583 958.852 661.583 958.852 658.96 958.854C655.475 958.858 651.993 958.859 648.51 958.863C615.89 958.887 583.269 958.877 550.649 958.858C520.856 958.84 491.063 958.863 461.269 958.905C430.622 958.946 399.974 958.964 369.327 958.952C352.144 958.946 334.96 958.95 317.777 958.979C303.148 959.006 288.519 959.007 273.89 958.976C266.437 958.962 258.985 958.957 251.532 958.985C207.819 959.131 171.167 956.739 133.358 931.804C125.466 926.045 118.411 919.52 111.356 912.78C110.285 911.839 109.214 910.897 108.11 909.928C88.1869 891.742 75.3255 864.084 69.3079 838.198C63.9537 813.553 65.0699 788.07 65.1488 762.984C65.1648 755.477 65.1402 747.971 65.1211 740.462C65.0902 725.801 65.0967 711.142 65.1171 696.481C65.1328 684.556 65.1348 672.632 65.1273 660.707C65.1261 659.005 65.1251 657.3 65.124 655.544C65.1218 652.082 65.1195 648.621 65.1172 645.159C65.0974 612.776 65.1202 580.392 65.1577 548.01C65.1889 520.278 65.1834 492.547 65.1512 464.816C65.1139 432.535 65.0993 400.254 65.1207 367.974C65.123 364.527 65.1251 361.079 65.1273 357.63C65.1284 355.935 65.1294 354.24 65.1305 352.492C65.1366 340.593 65.1265 328.694 65.1099 316.794C65.0904 302.278 65.096 287.762 65.1329 273.245C65.151 265.852 65.1585 258.459 65.1354 251.066C64.9416 183.867 64.9416 183.867 79.5616 155.032C80.1565 153.815 80.7513 152.597 81.3642 151.343C86.7712 140.609 93.3348 131.041 100.903 121.707C102.062 120.124 102.062 120.124 103.244 118.508C116.087 101.826 136.108 88.7205 154.91 79.8885C156.572 79.1046 158.234 78.3207 159.946 77.513C181.215 68.0745 201.541 65.1653 224.667 65.2734ZM312.359 136.164C308.845 140.517 306.665 144.304 306.083 149.932C306.102 151.282 306.12 152.633 306.139 154.024C306.149 155.496 306.162 156.967 306.172 158.482C306.202 160.003 306.231 161.524 306.261 163.091C306.277 164.638 306.292 166.186 306.31 167.78C306.35 171.59 306.407 175.399 306.479 179.208C304.32 179.163 302.16 179.117 299.935 179.07C291.831 178.911 283.726 178.812 275.621 178.73C272.13 178.686 268.641 178.627 265.149 178.551C242.065 178.061 224.878 178.411 205.175 191.589C193.61 202.405 184.326 213.776 180.035 229.292C178.415 237.965 178.826 246.842 178.858 255.633C178.853 257.896 178.848 260.16 178.842 262.491C178.827 268.755 178.835 275.017 178.845 281.282C178.853 288.042 178.841 294.805 178.831 301.567C178.816 314.806 178.819 328.047 178.829 341.286C178.837 352.048 178.838 362.811 178.835 373.572C178.834 375.104 178.834 376.637 178.833 378.216C178.832 381.328 178.831 384.44 178.83 387.554C178.82 416.738 178.831 445.92 178.85 475.105C178.865 500.138 178.863 525.172 178.847 550.204C178.828 579.282 178.821 608.36 178.831 637.437C178.832 640.538 178.834 643.64 178.835 646.741C178.835 648.268 178.836 649.794 178.836 651.366C178.839 662.113 178.834 672.859 178.826 683.604C178.816 696.706 178.819 709.806 178.837 722.905C178.846 729.588 178.85 736.27 178.839 742.952C178.826 750.199 178.841 757.446 178.858 764.693C178.851 766.799 178.843 768.908 178.835 771.079C178.918 788.836 181.956 803.455 191.496 818.688C200.865 830.411 212.053 838.003 226.062 843.162C235.784 845.865 245.801 845.316 255.809 845.29C258.083 845.299 260.357 845.306 262.7 845.314C268.991 845.335 275.283 845.335 281.574 845.33C288.367 845.33 295.162 845.349 301.954 845.367C315.256 845.394 328.559 845.405 341.862 845.407C352.678 845.408 363.493 845.415 374.308 845.426C404.99 845.457 435.671 845.473 466.352 845.471C468.006 845.469 469.659 845.469 471.363 845.469C473.018 845.469 474.673 845.469 476.379 845.469C503.199 845.468 530.022 845.501 556.842 845.551C584.398 845.6 611.954 845.624 639.51 845.621C654.975 845.621 670.439 845.63 685.902 845.668C699.07 845.699 712.237 845.706 725.404 845.684C732.119 845.672 738.831 845.672 745.546 845.701C752.835 845.734 760.124 845.713 767.415 845.685C770.572 845.713 770.572 845.713 773.793 845.739C789.358 845.614 801.875 842.296 815.52 834.806C831.407 822.093 838.388 810.077 844.809 790.809C844.976 787.705 845.041 784.595 845.048 781.488C845.057 779.542 845.065 777.596 845.074 775.592C845.076 773.445 845.076 771.299 845.078 769.086C845.084 766.812 845.093 764.538 845.1 762.196C845.121 755.871 845.132 749.546 845.138 743.221C845.149 736.404 845.17 729.588 845.189 722.77C845.231 706.296 845.257 689.825 845.28 673.352C845.285 668.698 845.292 664.044 845.299 659.39C845.344 630.488 845.382 601.584 845.403 572.68C845.409 565.984 845.414 559.289 845.419 552.593C845.421 550.096 845.421 550.096 845.422 547.549C845.445 520.605 845.503 493.662 845.576 466.72C845.649 439.05 845.691 411.382 845.699 383.713C845.706 368.181 845.726 352.651 845.783 337.118C845.832 323.886 845.851 310.654 845.832 297.422C845.823 290.675 845.828 283.928 845.872 277.182C845.917 269.853 845.896 262.524 845.868 255.195C845.893 253.084 845.917 250.972 845.942 248.795C845.776 230.955 840.661 216.738 830.546 202.078C821.14 190.814 808.927 184.828 795.206 180.328C787.887 178.467 780.776 178.564 773.265 178.698C771.662 178.705 770.061 178.712 768.41 178.72C763.352 178.749 758.295 178.815 753.237 178.881C749.783 178.908 746.33 178.931 742.875 178.953C734.46 179.01 726.045 179.1 717.631 179.208C717.721 175.994 717.721 175.994 717.814 172.715C717.864 169.87 717.911 167.025 717.958 164.18C718.002 162.771 718.045 161.363 718.091 159.912C718.199 151.027 717.277 145.119 712.404 137.389C708.281 132.62 706.235 130.686 700.209 128.677C694.258 127.855 688.728 127.723 682.787 128.677C677.782 131.4 674.047 134.606 670.592 139.132C665.167 151.134 665.167 151.134 667.108 179.208C564.773 179.208 462.438 179.208 357.002 179.208C357.002 168.858 357.002 158.508 357.002 147.844C352.11 137.804 352.11 137.804 344.806 130.42C332.193 126.215 322.111 126.879 312.359 136.164Z"   fill="#1D5BA2" ></path><path d="M335.457 128.119C340.931 128.86 344.087 130.318 348.292 133.904C352.515 138.598 355.001 141.84 357.003 147.844C357.003 158.194 357.003 168.544 357.003 179.208C453.014 179.208 549.025 179.208 647.945 179.208C647.945 186.683 647.945 194.158 647.945 201.86C607.126 201.86 566.307 201.86 524.251 201.86C524.826 226.585 525.401 251.311 525.993 276.785C532.152 274.322 536.533 272.355 541.89 268.835C552.235 262.052 562.352 261.862 574.387 262.151C585.303 262.845 593.842 266.943 602.649 273.3C611.915 281.304 618.436 290.282 622.473 301.874C625.424 314.239 624.471 326.689 620.337 338.677C615.422 349.257 608.959 357.572 599.014 363.779C584.718 371.033 573.431 374.08 557.352 372.62C549.389 370.292 542.669 366.457 535.903 361.73C531.178 358.048 531.178 358.048 524.251 358.68C523.676 361.555 523.101 364.43 522.509 367.393C520.387 367.499 518.265 367.603 516.078 367.713C513.249 367.86 510.42 368.008 507.591 368.156C506.199 368.224 504.805 368.292 503.369 368.363C495.132 368.801 487.099 369.578 478.954 370.878C478.552 372.704 478.151 374.53 477.737 376.412C477.164 378.814 476.59 381.217 476.014 383.62C475.756 384.822 475.496 386.025 475.228 387.265C473.775 393.162 472.536 396.533 467.923 400.574C463.275 402.242 463.275 402.242 458.926 402.038C452.374 399.727 447.073 395.943 441.327 392.101C437.379 389.726 437.379 389.726 433.555 390.304C423.489 394.719 415.749 402.238 409.268 410.954C406.363 413.859 403.461 416.763 400.557 419.666C397.012 423.682 393.545 427.76 390.104 431.863C391.085 438.913 393.313 443.323 397.29 449.18C402.299 457.221 402.299 457.221 402.299 464.099C400.557 468.455 400.557 468.455 397.072 471.94C393.661 473.009 390.205 473.936 386.729 474.771C384.881 475.226 383.032 475.679 381.128 476.146C376.166 477.167 376.166 477.167 370.94 477.167C369.065 486.655 368.637 496.066 368.219 505.7C368.142 507.315 368.067 508.93 367.99 510.594C367.806 514.553 367.628 518.512 367.456 522.471C354.226 522.824 354.226 522.824 347.856 519.639C342.37 514.901 339.213 511.64 336.097 505.046C334.761 498.359 334.709 492.567 336.097 485.879C338.839 481.176 338.839 481.176 342.194 476.514C347.455 469.075 349.272 463.989 349.489 454.843C349.084 447.99 348.323 444.128 345.352 437.854C339.778 431.978 335.139 427.479 327.386 424.893C317.784 424.048 309.308 423.557 300.491 427.725C298.281 429.774 298.281 429.774 296.027 431.863C294.41 433.337 292.793 434.811 291.127 436.329C287.286 441.227 286.355 445.658 285.574 451.793C285.177 460.42 286.487 466.061 290.8 473.682C291.935 475.31 291.935 475.31 293.094 476.97C297.438 483.271 300.134 487.899 300.382 495.681C299.933 502.734 298.285 507.827 294.284 513.758C289.604 518.09 286.4 520.453 280.347 522.471C277.754 522.622 275.155 522.676 272.557 522.669C270.203 522.669 270.203 522.669 267.802 522.669C266.114 522.659 264.426 522.65 262.687 522.641C260.088 522.638 260.088 522.638 257.437 522.634C251.898 522.624 246.36 522.603 240.822 522.58C237.068 522.572 233.315 522.563 229.562 522.556C220.358 522.537 211.154 522.507 201.949 522.471C202.014 557.217 202.119 591.963 202.27 626.709C202.339 642.843 202.396 658.978 202.422 675.111C202.444 689.176 202.491 703.241 202.567 717.306C202.607 724.75 202.634 732.195 202.632 739.639C202.631 746.654 202.662 753.666 202.718 760.681C202.733 763.248 202.736 765.816 202.726 768.384C202.68 782.376 202.903 792.868 210.66 804.748C217.832 813.279 226.218 818.647 236.793 822.172C240.35 822.353 243.913 822.428 247.475 822.449C249.71 822.465 251.945 822.482 254.248 822.5C256.73 822.51 259.213 822.521 261.695 822.531C264.305 822.547 266.914 822.564 269.524 822.583C276.615 822.63 283.705 822.667 290.796 822.702C298.203 822.738 305.611 822.787 313.019 822.834C327.05 822.921 341.08 823 355.111 823.075C371.083 823.16 387.055 823.256 403.027 823.352C435.886 823.55 468.744 823.735 501.603 823.915C501.028 803.214 500.453 782.514 499.861 761.186C492.441 762.671 490.082 763.202 484.399 767.177C473.662 774.096 463.447 775.948 450.794 775.671C438.257 774.29 427.276 768.494 417.543 760.643C407.85 751.293 403.201 739.36 400.557 726.337C399.02 715.55 401.079 706.263 405.13 696.205C411.208 684.238 419.656 676.223 431.263 669.6C443.076 664.243 453.993 663.59 466.759 665.352C476.881 668.021 485.179 672.091 492.892 679.291C495.191 678.716 497.491 678.141 499.861 677.549C500.435 670.649 501.01 663.749 501.603 656.639C508.502 656.639 515.401 656.639 522.509 656.639C522.699 661.07 522.836 665.493 522.944 669.926C523.031 671.79 523.031 671.79 523.122 673.689C523.251 680.741 522.742 684.097 519.221 690.46C514.348 696.435 510.652 699.507 503.345 701.943C497.953 702.799 493.056 702.872 487.665 701.943C483.326 699.627 479.528 696.956 475.566 694.048C468.869 689.261 462.852 688.153 454.782 687.242C447.491 687.437 442.642 690.115 436.728 694.219C430.864 698.991 427.331 703.504 424.947 710.655C423.893 721.115 424.968 729.198 430.174 738.534C434.942 744.037 439.115 747.998 445.853 750.732C454.561 751.746 462.559 751.66 470.787 748.554C475.59 745.544 475.59 745.544 480.151 741.694C487.343 737.759 492.556 737.653 500.636 737.97C508.19 738.928 512.003 742.223 517.61 747.029C521.202 751.244 522.603 754.142 524.251 759.444C524.54 764.365 524.659 769.104 524.591 774.018C524.587 775.398 524.582 776.778 524.577 778.2C524.557 782.584 524.514 786.968 524.469 791.353C524.451 794.335 524.436 797.318 524.422 800.301C524.383 807.591 524.322 814.882 524.251 822.172C558.704 822.148 593.157 822.075 627.61 821.942C643.609 821.883 659.607 821.838 675.605 821.832C689.555 821.827 703.505 821.791 717.452 821.719C724.834 821.682 732.215 821.66 739.597 821.674C746.555 821.688 753.513 821.66 760.472 821.601C763.015 821.587 765.559 821.587 768.102 821.604C781.956 821.684 792.758 820.857 804.96 813.984C809.188 811.05 811.866 808.117 814.432 803.659C815.225 802.343 816.017 801.027 816.834 799.67C820.27 792.897 820.653 787.562 820.695 780.059C820.713 777.809 820.73 775.558 820.747 773.239C820.758 770.74 820.768 768.242 820.779 765.743C820.794 763.115 820.812 760.488 820.831 757.86C820.878 750.723 820.915 743.584 820.949 736.445C820.986 728.988 821.035 721.53 821.082 714.072C821.169 699.946 821.246 685.82 821.322 671.696C821.408 655.615 821.503 639.535 821.599 623.454C821.798 590.374 821.983 557.294 822.162 524.213C797.441 524.788 772.719 525.363 747.249 525.956C748.797 532.152 749.569 534.203 753.238 538.916C758.482 545.664 760.919 551.489 761.893 560.05C762.231 574.413 761.442 585.279 754.034 598.049C746.698 608.215 738.156 615.599 726.778 620.919C716.151 624.545 706.065 625.368 694.984 623.533C682.788 619.382 671.865 613.962 663.407 603.93C656.003 592.887 651.164 580.928 650.668 567.557C651.367 552.852 656.745 542.756 665.367 531.183C666.52 527.494 666.52 527.494 667.109 524.213C664.234 523.638 661.36 523.063 658.398 522.471C658.398 515.571 658.398 508.67 658.398 501.561C665.497 500.993 669.738 501.126 676.147 504.393C681.686 509.071 684.858 512.427 688.015 518.986C689.142 526.879 689.227 533.802 685.837 541.094C684.832 542.423 683.825 543.753 682.788 545.123C677.212 552.934 675.274 558.106 674.949 567.774C675.184 574.26 675.715 579.433 678.76 585.199C684.017 592.021 688.511 596.401 696.726 599.138C705.445 599.851 713.43 599.959 721.769 597.178C728.59 592.306 733.214 586.701 737.341 579.428C739.118 572.476 739.726 566.175 738.538 559.062C735.447 552.416 731.099 546.788 726.67 540.984C723.393 533.739 723.485 526.794 724.6 518.986C727.613 512.732 730.66 509.32 735.871 504.804C744.386 500.317 751.48 500.685 760.954 500.882C763.658 500.896 763.658 500.896 766.418 500.911C772.151 500.95 777.883 501.037 783.616 501.126C787.514 501.161 791.411 501.194 795.308 501.221C804.841 501.298 814.373 501.415 823.904 501.561C823.8 467.528 823.664 433.492 823.493 399.459C823.416 383.655 823.347 367.851 823.301 352.047C823.261 338.269 823.202 324.492 823.122 310.712C823.082 303.42 823.049 296.128 823.038 288.836C823.026 281.964 822.991 275.093 822.939 268.22C822.923 265.707 822.916 263.193 822.92 260.679C822.934 244.423 822.176 231.027 813.343 217.106C807.042 210.439 799.421 206.543 790.803 203.602C781.428 202.353 772.156 202.223 762.71 202.187C760.188 202.146 757.665 202.102 755.142 202.054C749.026 201.938 742.916 201.901 736.796 201.86C736.796 194.385 736.796 186.91 736.796 179.208C744.202 179.087 751.604 178.984 759.008 178.921C761.522 178.895 764.034 178.859 766.547 178.814C780.578 178.566 793.475 178.407 806.482 184.436C808.083 185.136 809.685 185.837 811.334 186.559C824.573 194.008 832.786 204.107 839.639 217.593C845.228 230.062 845.8 241.123 845.707 254.659C845.72 256.942 845.732 259.225 845.744 261.577C845.775 267.871 845.765 274.165 845.747 280.459C845.735 287.264 845.763 294.069 845.786 300.874C845.822 314.19 845.822 327.504 845.808 340.82C845.798 351.65 845.8 362.477 845.81 373.305C845.812 374.849 845.814 376.392 845.815 377.981C845.819 381.118 845.822 384.254 845.826 387.391C845.854 416.775 845.84 446.158 845.81 475.543C845.784 502.394 845.81 529.245 845.859 556.096C845.911 583.7 845.93 611.304 845.913 638.908C845.911 642.034 845.909 645.16 845.908 648.286C845.908 649.823 845.906 651.361 845.906 652.945C845.903 663.75 845.92 674.555 845.944 685.362C845.976 698.544 845.974 711.727 845.936 724.909C845.916 731.627 845.909 738.346 845.943 745.065C845.977 752.366 845.944 759.665 845.904 766.968C845.925 769.066 845.946 771.165 845.967 773.326C845.791 789.414 842.45 804.488 833.012 817.823C830.148 821.257 827.16 824.34 823.904 827.399C822.251 828.982 820.599 830.562 818.895 832.191C809.35 839.065 798.284 844.448 786.383 845.047C783.86 845.05 783.86 845.05 781.287 845.054C779.343 845.061 777.397 845.066 775.393 845.073C773.256 845.073 771.12 845.071 768.918 845.07C766.648 845.075 764.378 845.08 762.038 845.085C755.731 845.099 749.425 845.103 743.118 845.103C736.317 845.106 729.517 845.12 722.717 845.131C707.843 845.155 692.97 845.165 678.097 845.174C668.807 845.178 659.518 845.185 650.231 845.193C624.509 845.214 598.79 845.233 573.068 845.239C571.422 845.239 569.776 845.239 568.08 845.24C565.605 845.24 565.605 845.24 563.079 845.24C559.735 845.242 556.39 845.242 553.047 845.244C550.559 845.244 550.559 845.244 548.021 845.244C521.153 845.251 494.284 845.282 467.416 845.322C439.827 845.364 412.238 845.385 384.649 845.387C369.159 845.389 353.672 845.399 338.183 845.43C324.992 845.456 311.801 845.467 298.61 845.451C291.882 845.444 285.155 845.446 278.428 845.47C271.125 845.498 263.824 845.483 256.521 845.465C253.351 845.486 253.351 845.486 250.116 845.507C236.134 845.425 223.488 843.942 211.184 836.908C197.767 825.809 186.46 814.73 181.043 797.778C179.722 790.918 179.08 784.42 179.067 777.436C179.06 775.499 179.052 773.56 179.044 771.561C179.044 769.449 179.044 767.335 179.045 765.159C179.038 762.901 179.032 760.643 179.025 758.317C179.008 752.059 179.001 745.802 178.997 739.547C178.99 732.793 178.973 726.041 178.958 719.287C178.924 702.989 178.906 686.688 178.891 670.387C178.883 662.707 178.874 655.026 178.865 647.345C178.835 621.803 178.81 596.262 178.797 570.721C178.794 564.098 178.79 557.475 178.787 550.852C178.786 548.383 178.786 548.383 178.785 545.863C178.77 519.195 178.726 492.527 178.669 465.858C178.612 438.464 178.58 411.069 178.575 383.674C178.571 368.299 178.556 352.923 178.511 337.548C178.473 324.455 178.459 311.362 178.476 298.269C178.484 291.593 178.481 284.918 178.447 278.242C178.411 270.992 178.429 263.744 178.451 256.494C178.432 254.401 178.413 252.308 178.394 250.152C178.517 233.927 181.744 220.122 191.061 206.652C201.187 194.332 212.467 184.747 227.96 179.998C241.651 176.998 256.413 178.361 270.33 178.663C273.843 178.707 277.357 178.747 280.871 178.783C289.409 178.878 297.944 179.028 306.48 179.208C306.399 176.939 306.318 174.671 306.235 172.333C306.169 169.325 306.106 166.317 306.044 163.308C305.986 161.817 305.927 160.325 305.867 158.789C305.749 151.126 306.024 146.94 309.76 140.057C317.842 130.392 322.874 127.559 335.457 128.119Z"   fill="#428AE6" ></path><path d="M700.209 128.677C707.493 131.687 711.403 136.207 715.889 142.617C717.495 147.436 717.836 150.254 717.802 155.216C717.793 157.313 717.793 157.313 717.784 159.453C717.762 161.631 717.762 161.631 717.739 163.853C717.732 165.326 717.723 166.798 717.716 168.315C717.695 171.946 717.664 175.577 717.631 179.209C723.955 179.209 730.279 179.209 736.795 179.209C736.795 186.684 736.795 194.159 736.795 201.86C740.492 201.759 744.188 201.658 747.997 201.554C751.635 201.486 755.274 201.433 758.912 201.382C761.413 201.338 763.913 201.279 766.413 201.203C780.448 200.787 792.248 200.965 804.816 208.133C812.719 213.79 818.116 220.252 821.532 229.398C825.142 240.838 824.591 252.511 824.497 264.385C824.496 266.979 824.496 269.574 824.499 272.168C824.501 279.17 824.469 286.17 824.433 293.171C824.4 300.504 824.398 307.837 824.391 315.169C824.375 329.036 824.332 342.9 824.28 356.767C824.22 372.56 824.192 388.354 824.166 404.147C824.112 436.62 824.02 469.09 823.903 501.563C822.9 501.569 821.898 501.575 820.865 501.582C810.407 501.655 799.95 501.775 789.494 501.925C785.593 501.974 781.694 502.01 777.793 502.035C772.18 502.071 766.567 502.153 760.953 502.244C758.347 502.246 758.347 502.246 755.69 502.249C745.215 502.448 745.215 502.448 735.816 506.624C731.056 510.714 728.636 513.12 726.342 518.987C725.535 524.936 725.469 530.466 726.342 536.411C729.234 542.057 729.234 542.057 733.31 546.866C737.964 553.313 740.763 558.746 741.15 566.796C740.704 575.242 738.258 581.837 733.31 588.685C727.988 594.25 723.237 598.432 715.889 600.882C706.964 601.75 698.08 602.355 689.974 598.051C682.635 592.473 677.06 587.183 674.077 578.23C673.343 570.008 672.592 561.402 675.451 553.543C677.996 549.142 681.03 545.145 684.094 541.095C687.49 533.791 687.375 526.893 686.272 518.987C683.668 513.127 681.429 509.912 676.043 506.415C669.415 502.894 664.178 501.326 656.655 499.82C655.505 492.92 654.355 486.02 653.171 478.911C643.972 476.611 634.773 474.311 625.296 471.941C621.812 463.229 621.812 463.229 622.125 459.798C624.708 453.401 628.427 447.634 631.951 441.72C634.278 437.399 634.278 437.399 633.871 433.567C625.97 416.625 607.448 400.216 592.195 390.046C585.127 390.579 580.661 393.306 574.882 397.233C566.841 402.243 566.841 402.243 559.964 402.243C555.609 400.5 555.609 400.5 552.125 397.016C550.641 392.727 550.641 392.727 549.294 387.65C548.84 385.984 548.386 384.317 547.919 382.6C546.898 377.849 546.898 377.849 546.898 370.879C538.849 369.729 530.801 368.579 522.508 367.394C522.508 364.519 522.508 361.644 522.508 358.682C526.38 357.504 526.38 357.504 531.219 356.939C535.132 358.934 535.132 358.934 538.95 361.839C548.365 368.493 555.593 371.056 567.151 371.642C579.01 371.449 588.836 367.863 599.163 362.167C609.372 354.646 615.667 346.781 619.743 334.723C623.112 321.939 623.549 309.924 619.089 297.368C614.128 286.535 607.893 278.792 598.19 271.858C585.837 264.683 574.492 262.828 560.468 263.663C548.035 265.406 539.249 271.022 529.477 278.528C527.752 277.953 526.027 277.378 524.25 276.786C524.25 252.06 524.25 227.335 524.25 201.86C565.069 201.86 605.888 201.86 647.944 201.86C647.944 194.385 647.944 186.91 647.944 179.209C654.268 179.209 660.592 179.209 667.108 179.209C667.017 175.994 667.017 175.994 666.924 172.715C666.875 169.87 666.828 167.025 666.781 164.18C666.738 162.772 666.694 161.363 666.648 159.912C666.54 151.03 667.435 145.1 672.334 137.39C680.692 128.012 687.884 126.798 700.209 128.677Z"   fill="#26B2A7" ></path><path d="M656.656 499.819C659.531 499.819 662.405 499.819 665.367 499.819C663.067 500.394 660.768 500.969 658.398 501.562C658.398 508.462 658.398 515.362 658.398 522.471C661.273 523.046 664.147 523.621 667.109 524.214C665.86 532.959 662.052 538.697 657.309 545.994C652.167 555.347 652.12 566.056 653.172 576.487C656.167 588.811 661.011 601.003 670.593 609.594C681.867 617.179 692.886 622.513 706.743 622.989C719.245 622.185 728.967 618.961 739.306 611.928C747.953 604.991 753.902 597.598 758.023 587.275C761.277 574.549 761.765 560.929 757.655 548.363C754.411 541.618 751 536.291 745.507 531.183C746.082 528.883 746.657 526.583 747.249 524.214C771.97 524.214 796.692 524.214 822.162 524.214C822.359 558.672 822.519 593.131 822.614 627.59C822.659 643.591 822.72 659.592 822.819 675.592C822.906 689.544 822.962 703.494 822.981 717.446C822.993 724.829 823.019 732.212 823.084 739.594C823.143 746.554 823.161 753.511 823.147 760.472C823.15 763.016 823.167 765.56 823.201 768.104C823.373 781.795 822.667 792.626 816.002 804.755C809.633 813.438 800.876 818.745 790.803 822.173C785.568 822.601 785.568 822.601 779.636 822.593C777.382 822.596 775.127 822.601 772.803 822.606C770.317 822.594 767.831 822.58 765.345 822.568C762.718 822.566 760.09 822.568 757.463 822.57C750.341 822.572 743.218 822.551 736.096 822.526C728.648 822.504 721.2 822.502 713.752 822.498C699.655 822.488 685.557 822.458 671.458 822.424C655.405 822.385 639.353 822.366 623.3 822.349C590.284 822.312 557.268 822.251 524.251 822.173C524.226 820.327 524.2 818.482 524.174 816.581C524.073 809.702 523.938 802.824 523.794 795.947C523.736 792.976 523.687 790.005 523.647 787.033C523.589 782.751 523.497 778.47 523.4 774.187C523.389 772.868 523.378 771.551 523.367 770.194C523.139 761.896 521.699 756.244 517.282 748.99C513.158 744.221 511.113 742.286 505.087 740.277C496.699 739.19 489.068 738.709 481.364 742.551C478.691 744.383 476.068 746.287 473.51 748.275C467.961 752.448 462.724 752.881 455.979 753.128C448.994 753.055 444.17 752.32 438.122 748.772C432.196 744.484 428.406 739.809 424.947 733.308C422.674 725.78 422.268 718.453 423.205 710.656C426.491 701.21 432.709 695.521 440.627 689.746C445.467 686.359 448.162 686.214 454.237 685.718C464.531 686.021 472.198 690.41 480.479 696.173C485.696 699.518 489.511 700.874 495.723 701.072C502.796 700.609 507.9 699.089 513.798 694.974C518.474 689.255 521.145 684.709 521.828 677.399C521.942 674.909 522.024 672.418 522.073 669.926C522.125 668.643 522.177 667.361 522.23 666.039C522.352 662.907 522.434 659.774 522.509 656.64C533.72 654.915 533.72 654.915 545.157 653.155C547.457 643.38 549.756 633.605 552.126 623.533C566.063 621.791 566.063 621.791 571.752 624.35C573.468 625.518 575.184 626.686 576.952 627.889C582.023 631.433 582.023 631.433 586.969 633.988C591.621 633.792 593.476 632.598 597.164 629.788C598.184 628.838 599.203 627.888 600.253 626.909C602.157 625.142 604.109 623.421 606.133 621.791C607.283 621.791 608.433 621.791 609.617 621.791C610.074 620.76 610.529 619.729 610.999 618.667C613.213 614.617 615.506 612.178 618.872 609.049C624.821 603.299 629.391 597.283 634.008 590.427C632.177 583.765 629.771 578.712 625.841 573.111C623.334 569.304 621.861 567.009 621.635 562.432C622.138 559.063 622.138 559.063 623.555 553.835C632.774 550.681 642.09 547.892 651.43 545.123C654.125 539.085 655.393 534.154 655.635 527.556C655.736 525.121 655.736 525.121 655.839 522.638C655.893 520.966 655.947 519.293 656.003 517.57C656.104 515.012 656.104 515.012 656.207 512.401C656.37 508.207 656.52 504.014 656.656 499.819Z"   fill="#3582E5" ></path><path d="M260.748 178.664C263.338 178.707 265.929 178.747 268.519 178.783C274.786 178.877 281.051 179.027 287.316 179.208C287.316 186.683 287.316 194.158 287.316 201.86C285.718 201.858 284.121 201.856 282.475 201.854C276.466 201.872 270.462 201.936 264.454 202.03C261.869 202.061 259.284 202.075 256.699 202.069C238.617 201.997 238.617 201.997 221.699 207.836C213.076 214.337 207.76 221.464 203.692 231.482C202.238 240.348 202.264 249.133 202.345 258.092C202.331 260.739 202.312 263.385 202.289 266.031C202.24 273.166 202.254 280.299 202.28 287.434C202.296 294.908 202.254 302.382 202.217 309.856C202.158 323.987 202.151 338.118 202.163 352.249C202.174 368.347 202.126 384.444 202.074 400.541C201.967 433.635 201.941 466.726 201.949 499.819C226.671 499.244 251.392 498.669 276.863 498.076C273.937 490.76 270.961 485.409 266.621 479.019C260.772 468.256 261.657 454.125 262.925 442.318C267.021 429.106 274.091 418.932 284.859 410.302C294.975 403.479 304.497 400.142 316.715 399.52C330.818 400.046 343.802 405.285 355.043 413.787C363.013 421.288 368.699 431.934 372.062 442.292C374.438 455.759 373.308 467.988 367.727 480.441C365.233 485.018 362.05 488.834 358.745 492.849C358.745 495.151 358.745 497.449 358.745 499.819C361.619 500.395 364.494 500.97 367.456 501.561C367.456 508.463 367.456 515.361 367.456 522.47C359.471 523.023 355.083 523.255 347.856 519.641C342.37 514.901 339.213 511.639 336.097 505.046C334.761 498.358 334.709 492.567 336.097 485.879C338.839 481.176 338.839 481.176 342.194 476.515C347.455 469.075 349.272 463.989 349.489 454.842C349.084 447.991 348.324 444.128 345.352 437.854C339.778 431.978 335.139 427.479 327.386 424.893C317.784 424.048 309.308 423.557 300.491 427.726C298.281 429.774 298.281 429.774 296.027 431.863C294.41 433.337 292.793 434.811 291.127 436.329C287.286 441.227 286.355 445.658 285.574 451.793C285.177 460.42 286.487 466.062 290.8 473.682C291.935 475.309 291.935 475.309 293.094 476.97C297.438 483.272 300.134 487.9 300.382 495.682C299.933 502.735 298.285 507.827 294.284 513.758C289.604 518.09 286.4 520.453 280.347 522.47C277.754 522.622 275.155 522.676 272.557 522.669C270.203 522.669 270.203 522.669 267.802 522.669C266.114 522.66 264.426 522.65 262.687 522.641C260.088 522.638 260.088 522.638 257.436 522.634C251.898 522.624 246.36 522.603 240.822 522.58C237.068 522.572 233.315 522.563 229.562 522.556C220.358 522.537 211.154 522.509 201.949 522.47C202.014 557.218 202.119 591.963 202.27 626.709C202.339 642.844 202.396 658.978 202.422 675.111C202.444 689.176 202.491 703.241 202.567 717.306C202.607 724.75 202.634 732.195 202.632 739.641C202.631 746.654 202.662 753.668 202.718 760.681C202.733 763.249 202.736 765.816 202.726 768.384C202.68 782.376 202.903 792.867 210.66 804.747C217.832 813.279 226.218 818.647 236.793 822.172C240.35 822.353 243.913 822.428 247.475 822.449C249.71 822.465 251.945 822.482 254.248 822.5C256.73 822.51 259.213 822.521 261.695 822.531C264.305 822.547 266.914 822.564 269.524 822.583C276.615 822.63 283.705 822.667 290.796 822.702C298.203 822.74 305.611 822.787 313.019 822.834C327.05 822.921 341.08 823 355.111 823.075C371.083 823.16 387.055 823.256 403.027 823.353C435.886 823.55 468.744 823.737 501.603 823.914C501.028 803.214 500.453 782.514 499.861 761.186C492.441 762.671 490.082 763.202 484.399 767.177C473.662 774.096 463.447 775.948 450.794 775.671C438.257 774.289 427.276 768.494 417.543 760.643C407.85 751.293 403.201 739.36 400.557 726.337C399.02 715.55 401.079 706.262 405.13 696.207C411.208 684.238 419.656 676.224 431.263 669.599C443.076 664.243 453.993 663.59 466.759 665.351C476.881 668.021 485.179 672.091 492.892 679.291C495.191 678.718 497.491 678.141 499.861 677.549C500.435 670.65 501.01 663.748 501.603 656.639C508.502 656.639 515.401 656.639 522.509 656.639C522.699 661.07 522.836 665.493 522.944 669.927C523.031 671.79 523.031 671.79 523.122 673.691C523.251 680.741 522.742 684.097 519.221 690.462C514.348 696.435 510.651 699.509 503.345 701.943C497.953 702.8 493.056 702.872 487.665 701.943C483.326 699.627 479.528 696.956 475.566 694.048C468.869 689.261 462.852 688.153 454.782 687.242C447.491 687.437 442.644 690.115 436.728 694.219C430.864 698.991 427.33 703.504 424.947 710.655C423.893 721.115 424.968 729.2 430.174 738.534C434.942 744.037 439.115 747.998 445.853 750.732C454.561 751.746 462.559 751.66 470.787 748.553C475.59 745.544 475.59 745.544 480.153 741.693C487.343 737.759 492.556 737.653 500.636 737.97C508.19 738.93 512.003 742.225 517.61 747.031C521.202 751.244 522.601 754.143 524.251 759.444C524.54 764.365 524.659 769.104 524.591 774.018C524.585 775.398 524.582 776.778 524.577 778.199C524.557 782.583 524.512 786.969 524.469 791.353C524.451 794.336 524.436 797.318 524.422 800.301C524.383 807.591 524.322 814.882 524.251 822.172C558.704 822.149 593.157 822.074 627.61 821.942C643.609 821.883 659.607 821.837 675.605 821.832C689.555 821.827 703.503 821.79 717.452 821.719C724.834 821.682 732.215 821.66 739.597 821.674C746.555 821.688 753.512 821.66 760.472 821.6C763.014 821.587 765.559 821.587 768.102 821.604C781.954 821.684 792.756 820.858 804.96 813.984C809.188 811.05 811.866 808.117 814.43 803.66C815.225 802.343 816.017 801.027 816.833 799.67C820.27 792.897 820.653 787.562 820.695 780.059C820.712 777.809 820.73 775.558 820.747 773.24C820.758 770.74 820.768 768.241 820.777 765.743C820.794 763.115 820.812 760.488 820.829 757.862C820.876 750.723 820.913 743.584 820.948 736.445C820.986 728.987 821.035 721.53 821.08 714.072C821.167 699.946 821.246 685.822 821.32 671.696C821.408 655.615 821.503 639.535 821.599 623.456C821.798 590.375 821.982 557.295 822.162 524.213C797.441 524.79 772.719 525.365 747.249 525.955C748.797 532.151 749.569 534.202 753.238 538.916C758.482 545.664 760.919 551.489 761.893 560.05C762.231 574.413 761.44 585.281 754.034 598.051C746.698 608.216 738.154 615.599 726.778 620.919C716.151 624.545 706.065 625.367 694.984 623.533C682.788 619.382 671.865 613.961 663.407 603.93C656.001 592.886 651.164 580.928 650.666 567.558C651.367 552.852 656.745 542.756 665.367 531.183C666.52 527.494 666.52 527.494 667.109 524.213C664.234 523.638 661.36 523.063 658.398 522.47C658.398 515.57 658.398 508.672 658.398 501.561C665.497 500.995 669.738 501.125 676.147 504.394C681.686 509.071 684.858 512.427 688.015 518.986C689.142 526.881 689.227 533.803 685.837 541.094C684.832 542.423 683.825 543.753 682.788 545.122C677.21 552.934 675.274 558.107 674.949 567.774C675.184 574.261 675.715 579.433 678.76 585.199C684.017 592.02 688.511 596.401 696.726 599.138C705.444 599.851 713.43 599.959 721.769 597.18C728.59 592.306 733.214 586.701 737.339 579.428C739.118 572.475 739.724 566.175 738.538 559.062C735.447 552.416 731.099 546.788 726.67 540.986C723.391 533.739 723.485 526.793 724.6 518.986C727.611 512.732 730.66 509.32 735.871 504.804C744.385 500.317 751.48 500.685 760.954 500.882C763.658 500.895 763.658 500.895 766.418 500.911C772.151 500.949 777.883 501.038 783.616 501.125C787.514 501.162 791.411 501.193 795.308 501.221C804.841 501.298 814.373 501.415 823.904 501.561C823.798 467.528 823.664 433.492 823.493 399.459C823.415 383.655 823.347 367.851 823.301 352.047C823.261 338.269 823.202 324.49 823.122 310.712C823.08 303.42 823.049 296.128 823.036 288.837C823.026 281.964 822.991 275.092 822.939 268.22C822.923 265.707 822.916 263.193 822.92 260.679C822.934 244.422 822.174 231.027 813.343 217.106C807.042 210.439 799.421 206.543 790.803 203.602C781.428 202.353 772.156 202.222 762.71 202.187C760.188 202.146 757.665 202.102 755.142 202.054C749.026 201.938 742.916 201.901 736.796 201.86C736.796 194.385 736.796 186.91 736.796 179.208C744.202 179.087 751.602 178.983 759.008 178.921C761.521 178.895 764.033 178.859 766.545 178.814C780.578 178.566 793.475 178.407 806.482 184.435C808.083 185.136 809.685 185.837 811.334 186.559C824.573 194.008 832.786 204.107 839.639 217.594C845.228 230.061 845.8 241.123 845.707 254.659C845.72 256.942 845.732 259.225 845.744 261.577C845.775 267.871 845.765 274.165 845.747 280.459C845.735 287.264 845.763 294.069 845.786 300.874C845.822 314.189 845.822 327.505 845.808 340.82C845.798 351.649 845.8 362.477 845.81 373.305C845.812 374.848 845.814 376.392 845.815 377.983C845.819 381.118 845.822 384.254 845.826 387.39C845.854 416.775 845.838 446.158 845.81 475.543C845.784 502.394 845.808 529.245 845.859 556.096C845.911 583.7 845.93 611.304 845.913 638.908C845.911 642.034 845.909 645.16 845.908 648.286C845.908 649.824 845.906 651.361 845.906 652.945C845.902 663.75 845.918 674.557 845.944 685.362C845.974 698.543 845.974 711.727 845.936 724.91C845.915 731.629 845.909 738.346 845.943 745.065C845.977 752.366 845.944 759.667 845.904 766.968C845.925 769.066 845.946 771.165 845.967 773.326C845.791 789.414 842.448 804.49 833.012 817.825C830.148 821.257 827.16 824.34 823.904 827.399C822.251 828.981 820.599 830.564 818.895 832.191C809.35 839.065 798.284 844.448 786.383 845.047C783.86 845.05 783.86 845.05 781.287 845.054C779.343 845.061 777.397 845.068 775.393 845.075C773.256 845.073 771.12 845.071 768.918 845.07C766.648 845.075 764.378 845.08 762.038 845.085C755.731 845.099 749.425 845.103 743.118 845.104C736.317 845.106 729.517 845.12 722.715 845.132C707.842 845.155 692.97 845.165 678.095 845.174C668.807 845.178 659.518 845.186 650.231 845.193C624.509 845.214 598.79 845.233 573.068 845.239C571.422 845.239 569.776 845.24 568.08 845.24C565.605 845.24 565.605 845.24 563.079 845.24C559.735 845.242 556.39 845.242 553.047 845.244C550.559 845.244 550.559 845.244 548.021 845.244C521.152 845.251 494.284 845.282 467.416 845.322C439.827 845.364 412.238 845.385 384.649 845.387C369.159 845.388 353.672 845.399 338.183 845.43C324.992 845.458 311.801 845.467 298.61 845.453C291.882 845.446 285.155 845.448 278.428 845.472C271.125 845.498 263.824 845.483 256.521 845.465C253.351 845.486 253.351 845.486 250.116 845.507C236.134 845.427 223.488 843.944 211.184 836.91C197.767 825.81 186.46 814.73 181.043 797.778C179.722 790.918 179.08 784.42 179.067 777.438C179.06 775.499 179.052 773.559 179.044 771.561C179.044 769.449 179.044 767.337 179.045 765.159C179.039 762.903 179.032 760.644 179.025 758.316C179.008 752.059 179.002 745.804 178.997 739.547C178.99 732.793 178.973 726.041 178.958 719.287C178.924 702.988 178.906 686.688 178.891 670.387C178.883 662.706 178.874 655.026 178.865 647.345C178.835 621.804 178.81 596.263 178.797 570.721C178.794 564.098 178.79 557.475 178.787 550.852C178.786 548.382 178.786 548.382 178.785 545.863C178.77 519.195 178.726 492.526 178.669 465.858C178.612 438.463 178.58 411.069 178.575 383.674C178.571 368.298 178.556 352.923 178.511 337.548C178.473 324.455 178.459 311.362 178.476 298.269C178.484 291.593 178.481 284.918 178.447 278.242C178.411 270.992 178.429 263.744 178.452 256.494C178.432 254.401 178.413 252.309 178.394 250.152C178.517 233.927 181.744 220.122 191.061 206.652C210.217 183.346 231.574 177.795 260.748 178.664Z"   fill="#F0FAFB" ></path><path d="M496.377 388.302C498.716 388.152 501.063 388.116 503.407 388.132C504.816 388.138 506.225 388.144 507.677 388.149C509.158 388.164 510.639 388.178 512.165 388.194C513.653 388.201 515.141 388.209 516.674 388.217C520.361 388.238 524.048 388.269 527.736 388.302C531.591 397.017 534.327 405.143 536.447 414.439C540.036 415.864 543.63 417.277 547.226 418.686C549.227 419.475 551.228 420.263 553.29 421.075C560.401 423.749 560.401 423.749 567.806 424.894C572.613 422.475 572.613 422.475 577.06 418.904C578.599 417.756 580.137 416.609 581.723 415.426C583.458 414.075 583.458 414.075 585.228 412.697C596.085 417.722 604.312 425.761 611.36 435.349C609.329 441.259 606.653 445.855 603.085 450.922C600.75 454.464 600.75 454.464 599.165 458C599.721 463.178 599.721 463.178 602.649 468.455C603.909 471.858 605.141 475.271 606.352 478.692C607.43 481.639 608.507 484.586 609.618 487.622C618.242 489.922 626.866 492.222 635.751 494.592C635.751 505.517 635.751 516.442 635.751 527.698C630.235 531.376 626.148 532.5 619.744 534.015C617.852 534.469 615.958 534.922 614.007 535.39C612.559 535.727 611.109 536.064 609.618 536.411C607.764 540.572 605.958 544.744 604.174 548.934C603.646 550.108 603.118 551.282 602.575 552.491C600.848 556.428 600.848 556.428 599.165 562.548C600.076 567.333 600.076 567.333 602.649 571.26C603.39 572.548 604.132 573.834 604.895 575.16C605.663 576.353 606.432 577.545 607.223 578.774C608 579.99 608.777 581.204 609.576 582.457C610.165 583.361 610.754 584.268 611.36 585.2C608.595 592.001 604.158 596.238 598.947 601.317C597.362 602.872 595.777 604.426 594.142 606.027C592.925 607.205 591.709 608.381 590.454 609.594C581.689 608.535 577.468 606.468 570.956 600.814C567.81 598.777 567.81 598.777 563.818 599.472C558.161 601.161 552.719 603.184 547.226 605.346C545.203 606.141 543.179 606.933 541.095 607.749C539.561 608.359 538.027 608.967 536.447 609.594C535.722 612.206 535.722 612.206 534.984 614.868C534.346 617.141 533.709 619.411 533.071 621.683C532.594 623.406 532.594 623.406 532.108 625.165C529.675 633.791 529.675 633.791 527.736 635.731C522.818 635.905 517.953 635.973 513.036 635.949C511.661 635.956 510.285 635.963 508.868 635.969C498.56 635.952 498.56 635.952 494.635 633.988C493.138 628.738 492.065 623.443 490.939 618.102C489.735 613.215 489.735 613.215 487.312 610.105C482.863 606.902 478.269 604.987 473.184 602.952C471.25 602.149 469.317 601.347 467.325 600.521C461.567 598.698 461.567 598.698 455.912 600.406C450.808 602.565 450.808 602.565 445.745 606.437C440.627 609.594 440.627 609.594 436.585 609.526C430.184 607.23 426.33 603.015 421.79 598.16C420.915 597.252 420.041 596.346 419.139 595.412C416.994 593.185 414.871 590.938 412.753 588.685C414.892 582.802 417.317 578.364 421.137 573.438C423.56 569.913 423.56 569.913 424.948 566.033C424.334 560.281 422.133 555.563 419.721 550.35C418.723 547.707 417.742 545.057 416.781 542.4C416.027 540.424 415.272 538.447 414.495 536.411C411.884 535.686 411.884 535.686 409.221 534.947C406.95 534.31 404.679 533.673 402.408 533.035C401.259 532.717 400.111 532.399 398.927 532.072C390.302 529.638 390.302 529.638 388.362 527.698C388.211 525.232 388.176 522.758 388.192 520.286C388.198 518.798 388.203 517.31 388.209 515.777C388.224 514.213 388.238 512.648 388.253 511.036C388.261 509.465 388.269 507.894 388.277 506.275C388.298 502.381 388.329 498.486 388.362 494.592C396.986 492.292 405.61 489.992 414.495 487.622C416.597 482.231 416.597 482.231 418.741 476.732C419.53 474.71 420.318 472.689 421.13 470.606C421.815 468.746 422.5 466.886 423.206 464.97C423.96 463.191 423.96 463.191 424.73 461.376C425.264 457.591 425.264 457.591 422.45 453.127C421.298 451.429 420.146 449.731 418.959 447.981C417.811 446.265 416.664 444.549 415.481 442.781C414.581 441.478 413.68 440.176 412.753 438.833C418.027 427.682 425.878 420.228 435.401 412.697C441.31 414.728 445.906 417.404 450.971 420.973C454.513 423.308 454.513 423.308 458.049 424.894C463.225 424.337 463.225 424.337 468.502 421.409C471.904 420.149 475.317 418.916 478.737 417.706C481.714 416.619 484.69 415.53 487.666 414.439C488.149 412.698 488.632 410.958 489.129 409.164C489.766 406.893 490.404 404.622 491.041 402.351C491.359 401.202 491.677 400.053 492.004 398.869C494.437 390.242 494.437 390.242 496.377 388.302Z"   fill="#F7FBFC" ></path><path d="M510.967 367.066C512.692 367.045 514.417 367.024 516.194 367.002C526.981 366.98 536.46 368.143 546.9 370.878C547.321 372.724 547.745 374.571 548.178 376.473C548.767 378.892 549.358 381.31 549.948 383.729C550.222 384.946 550.496 386.163 550.78 387.418C551.717 391.428 551.717 391.428 553.868 397.015C556.868 399.968 556.868 399.968 560.837 400.5C569.645 399.849 575.628 395.144 582.785 390.358C586.97 388.303 586.97 388.303 590.44 388.445C607.895 396.427 625.203 416.041 635.75 431.864C635.219 438.914 632.536 443.242 628.564 448.962C624.641 455.166 624.641 455.166 623.255 462.227C623.747 466.439 623.747 466.439 625.297 471.94C626.752 472.038 626.752 472.038 628.236 472.138C637.991 472.978 645.885 475.133 654.914 478.91C656.747 490.952 656.975 502.788 656.982 514.957C657.005 516.899 657.026 518.841 657.048 520.841C657.05 522.716 657.054 524.59 657.057 526.521C657.066 528.212 657.073 529.902 657.08 531.644C656.618 536.836 655.585 540.508 653.172 545.124C644.36 549.978 635.123 551.94 625.297 553.836C623.663 558.631 623.043 561.049 623.555 566.033C627.05 573.379 631.28 580.152 635.75 586.942C633.24 594.93 628.686 600.169 623.01 606.109C622.186 606.993 621.36 607.878 620.51 608.791C613.24 616.548 605.884 624.187 597.748 631.047C596.696 631.939 595.642 632.832 594.557 633.75C593.778 634.403 592.999 635.057 592.196 635.731C585.97 634.581 581.47 631.908 576.081 628.651C569.799 625.118 565.156 622.814 557.896 622.879C555.992 623.095 554.088 623.311 552.126 623.534C552.062 624.63 551.996 625.726 551.929 626.855C551.138 637.142 549.199 645.405 545.158 654.898C538.833 655.473 532.509 656.048 525.993 656.64C525.993 660.664 525.993 664.689 525.993 668.838C525.419 668.838 524.844 668.838 524.251 668.838C524.251 664.812 524.251 660.787 524.251 656.64C522.608 656.68 520.964 656.721 519.27 656.762C504.761 656.966 491.526 655.982 477.213 653.156C474.913 643.955 472.613 634.755 470.244 625.276C458.896 622.568 458.896 622.568 452.285 626.031C450.486 627.182 448.687 628.336 446.834 629.523C445.003 630.671 443.173 631.817 441.287 633.001C439.92 633.901 438.552 634.802 437.143 635.731C426.215 632.042 419.225 624.379 411.01 616.564C409.717 615.341 408.423 614.119 407.09 612.86C399.889 605.876 393.927 598.775 388.362 590.427C390.191 583.775 392.571 578.782 396.528 573.219C399.182 569.199 400.519 566.885 400.734 562.043C400.242 557.788 400.242 557.788 398.815 552.093C396.282 551.769 396.282 551.769 393.697 551.438C386.013 550.353 378.493 548.629 370.94 546.866C366.562 535.066 366.94 523.505 367.021 511.036C367.007 508.935 366.993 506.834 366.98 504.669C366.984 502.635 366.989 500.601 366.993 498.506C366.997 496.667 367.001 494.829 367.005 492.934C367.49 487.222 368.925 482.516 370.94 477.168C372.786 476.725 374.632 476.283 376.534 475.827C378.953 475.222 381.371 474.616 383.789 474.009C385.006 473.721 386.223 473.432 387.478 473.135C390.719 472.309 393.902 471.263 397.073 470.198C400.97 465.398 400.97 465.398 400.557 460.505C398.406 453.11 394.709 447.566 390.417 441.216C388.362 437.091 388.362 437.091 388.457 433.668C390.78 428.665 393.97 424.871 397.508 420.647C398.847 419.032 400.185 417.417 401.564 415.753C408.415 407.962 415.598 401.141 423.75 394.728C425.288 393.513 426.827 392.297 428.412 391.046C429.568 390.14 430.725 389.235 431.916 388.303C439.999 389.786 446.305 394.251 453.251 398.444C457.913 400.895 457.913 400.895 462.792 400.051C466.755 398.867 466.755 398.867 470.244 397.015C471.594 392.655 472.769 388.375 473.837 383.946C477.013 371.078 477.013 371.078 478.955 369.136C489.594 367.08 500.159 367.073 510.967 367.066ZM496.377 388.303C495.546 390.479 494.718 392.658 493.893 394.837C493.432 396.05 492.97 397.263 492.495 398.512C490.604 403.756 489.123 409.059 487.666 414.439C484.038 415.86 480.408 417.275 476.777 418.687C474.756 419.475 472.735 420.263 470.652 421.076C468.793 421.761 466.933 422.446 465.018 423.152C463.832 423.655 462.646 424.158 461.424 424.676C458.049 424.894 458.049 424.894 453.176 422.396C450.629 420.668 450.629 420.668 448.031 418.904C446.316 417.757 444.6 416.609 442.832 415.426C441.53 414.526 440.227 413.625 438.885 412.697C433.445 415.156 429.309 418.117 424.839 422.063C423.669 423.082 422.499 424.102 421.293 425.153C418.022 428.337 415.384 431.626 412.752 435.349C414.784 441.259 417.459 445.855 421.028 450.922C423.335 454.584 423.335 454.584 424.948 458.001C424.185 462.901 424.185 462.901 421.463 468.455C420.203 471.858 418.971 475.271 417.761 478.692C416.683 481.639 415.605 484.586 414.495 487.622C405.871 489.922 397.247 492.222 388.362 494.592C388.362 505.517 388.362 516.442 388.362 527.699C397.18 531.006 405.479 533.969 414.495 536.411C416.347 540.572 418.154 544.744 419.939 548.934C420.467 550.109 420.994 551.281 421.538 552.491C423.001 555.979 423.001 555.979 424.948 562.548C423.804 567.284 423.804 567.284 421.463 571.26C420.722 572.546 419.981 573.834 419.217 575.16C418.449 576.352 417.681 577.545 416.89 578.774C416.113 579.988 415.336 581.204 414.535 582.456C413.947 583.362 413.359 584.266 412.752 585.2C415.517 591.999 419.954 596.238 425.165 601.318C426.751 602.872 428.336 604.426 429.97 606.027C431.187 607.204 432.404 608.381 433.658 609.594C440.247 608.625 444.324 606.813 449.774 603.06C453.877 600.69 453.877 600.69 458.049 599.139C463.834 599.728 468.503 601.91 473.728 604.367C476.371 605.365 479.02 606.348 481.677 607.306C483.653 608.061 485.63 608.815 487.666 609.594C488.503 612.351 489.337 615.111 490.17 617.871C490.635 619.406 491.1 620.943 491.579 622.525C492.892 627.019 492.892 627.019 493.716 630.965C494.019 631.962 494.322 632.96 494.634 633.989C500.401 636.87 506.814 635.905 513.145 635.839C514.542 635.83 515.939 635.823 517.378 635.815C520.831 635.795 524.283 635.764 527.736 635.731C528.073 634.719 528.41 633.708 528.756 632.668C530.158 628.461 531.56 624.255 532.962 620.049C533.369 618.249 533.775 616.449 534.194 614.597C534.937 612.945 535.681 611.295 536.446 609.594C541.435 606.728 541.435 606.728 547.443 604.693C549.414 603.999 551.382 603.304 553.412 602.59C555.288 602.025 557.163 601.462 559.095 600.882C560.611 600.408 562.126 599.934 563.689 599.444C567.806 599.139 567.806 599.139 571.78 601.318C575.646 604.367 575.646 604.367 579.511 607.416C583.346 609.92 583.346 609.92 587.698 609.655C593.907 607.165 597.843 602.95 602.322 598.159C603.198 597.252 604.073 596.346 604.973 595.412C607.118 593.186 609.242 590.936 611.36 588.685C609.221 582.801 606.796 578.362 602.975 573.438C600.654 569.816 600.654 569.816 599.165 566.033C599.778 560.281 601.978 555.562 604.391 550.351C605.39 547.708 606.37 545.057 607.33 542.4C608.086 540.424 608.841 538.447 609.618 536.411C611.358 535.928 613.099 535.445 614.891 534.948C617.163 534.31 619.433 533.673 621.703 533.035C622.853 532.717 624.001 532.399 625.184 532.072C630.938 530.79 630.938 530.79 635.75 527.699C635.9 525.232 635.937 522.758 635.921 520.286C635.914 518.798 635.909 517.31 635.904 515.777C635.888 514.213 635.874 512.648 635.858 511.036C635.848 508.68 635.848 508.68 635.836 506.275C635.815 502.381 635.783 498.486 635.75 494.592C627.127 492.292 618.503 489.992 609.618 487.622C602.982 470.606 602.982 470.606 600.907 464.97C600.404 463.784 599.9 462.598 599.383 461.377C599.165 458.001 599.165 458.001 601.663 453.127C603.39 450.58 603.39 450.58 605.153 447.982C606.301 446.266 607.449 444.549 608.632 442.781C609.531 441.479 610.431 440.176 611.36 438.834C606.336 427.974 598.297 419.747 588.712 412.697C581.619 415.061 576.675 418.544 571.018 423.281C567.806 424.894 567.806 424.894 563.811 424.554C558.154 422.872 552.717 420.85 547.225 418.687C545.203 417.894 543.18 417.101 541.095 416.284C538.794 415.371 538.794 415.371 536.446 414.439C535.964 412.699 535.481 410.958 534.984 409.164C534.346 406.893 533.709 404.622 533.071 402.351C532.595 400.628 532.595 400.628 532.108 398.87C530.826 393.115 530.826 393.115 527.736 388.303C525.397 388.152 523.05 388.116 520.706 388.132C519.297 388.138 517.887 388.144 516.435 388.149C514.954 388.164 513.473 388.179 511.947 388.194C510.459 388.201 508.972 388.209 507.439 388.218C503.751 388.238 500.064 388.269 496.377 388.303Z"   fill="#1E5D9D" ></path><path d="M376.166 179.208C465.853 179.208 555.54 179.208 647.945 179.208C647.945 186.683 647.945 194.158 647.945 201.86C607.126 201.86 566.307 201.86 524.251 201.86C524.826 226.585 525.401 251.311 525.993 276.785C532.152 274.322 536.533 272.355 541.89 268.835C552.235 262.052 562.352 261.862 574.385 262.152C585.303 262.845 593.84 266.943 602.648 273.3C611.915 281.304 618.436 290.282 622.472 301.874C625.424 314.239 624.471 326.689 620.335 338.676C615.42 349.257 608.958 357.572 599.014 363.779C584.718 371.031 573.43 374.08 557.352 372.62C549.389 370.291 542.669 366.455 535.901 361.73C531.177 358.046 531.177 358.046 524.251 358.681C523.388 362.131 523.388 362.131 522.508 365.65C515.609 365.65 508.711 365.65 501.602 365.65C500.947 360.406 500.615 356.823 501.602 351.711C505.864 344.8 511.169 339.501 517.935 335.049C525.117 333.851 531.171 333.911 538.188 336.029C541.336 338.002 544.419 340.08 547.443 342.236C554.589 347.107 559.556 349.185 568.24 349.424C577.54 348.821 583.085 346.936 590.453 341.256C594.828 336.535 597.131 333.417 599.164 327.316C600.018 317.619 600.502 309.183 596.223 300.308C589.873 293.442 583.906 288.047 574.774 285.498C564.793 284.516 558.711 285.742 549.954 290.575C546.446 292.748 543.186 295.162 539.93 297.695C532.833 300.061 526.444 300.339 519.024 299.437C510.54 295.275 506.273 290.144 501.602 282.013C499.988 277.168 499.648 274.31 499.663 269.314C499.663 267.793 499.663 266.273 499.663 264.706C499.672 263.115 499.681 261.524 499.69 259.885C499.692 258.417 499.694 256.95 499.695 255.438C499.705 249.957 499.729 244.476 499.751 238.996C499.787 226.741 499.823 214.486 499.86 201.86C459.041 201.86 418.222 201.86 376.166 201.86C376.166 194.385 376.166 186.91 376.166 179.208Z"   fill="#ECF9FA" ></path><path d="M531.594 448.553C546 453.101 556.579 462.644 565.866 474.336C573.102 484.71 576.903 493.951 577.18 506.813C577.141 520.607 576.708 532.888 569.547 545.123C560.184 557.688 549.419 568.398 534.813 574.418C520.153 578.779 502.44 578.491 487.883 573.982C474.845 568.424 464.192 558.529 456.415 546.757C455.174 544.493 453.973 542.207 452.822 539.896C451.78 537.919 450.738 535.943 449.664 533.906C445.275 521.19 445.497 504.299 448.923 491.298C450.552 487.509 452.355 484.13 454.564 480.653C455.606 478.856 456.648 477.059 457.722 475.207C476.447 450.593 501.571 443.153 531.594 448.553Z"   fill="#1F5BA1" ></path></svg>